<svg xmlns="http://www.w3.org/2000/svg" viewBox="0 0 612 612" width="24" height="20">
	<style>
		tspan { white-space:pre }
		.shp0 { fill: #fff } 
	</style>
	<g id="Layer">
		<g id="Layer">
			<path id="Layer" class="shp0" d="M612 116.26C589.48 126.24 565.31 133.01 539.91 136.03C565.84 120.5 585.69 95.88 595.1 66.62C570.77 81 543.93 91.44 515.32 97.1C492.41 72.66 459.83 57.44 423.69 57.44C354.36 57.44 298.14 113.66 298.14 182.95C298.14 192.78 299.25 202.38 301.39 211.56C197.06 206.32 104.56 156.34 42.64 80.39C31.82 98.9 25.66 120.46 25.66 143.49C25.66 187.05 47.84 225.48 81.5 247.97C60.92 247.28 41.57 241.62 24.63 232.21L24.63 233.78C24.63 294.58 67.92 345.33 125.32 356.88C114.81 359.71 103.72 361.28 92.24 361.28C84.14 361.28 76.3 360.48 68.61 358.95C84.59 408.85 130.94 445.15 185.86 446.14C142.91 479.8 88.76 499.8 29.94 499.8C19.81 499.8 9.83 499.18 0 498.08C55.57 533.76 121.54 554.56 192.44 554.56C423.39 554.56 549.63 363.27 549.63 197.37L549.21 181.12C573.87 163.53 595.21 141.42 612 116.26Z" />
		</g>
	</g>
</svg>