<svg xmlns="http://www.w3.org/2000/svg" viewBox="0 0 28 28" width="28" height="28">
	<style>
		tspan { white-space:pre }
		.shp0 { fill: #fff } 
	</style>
	<path id="-e-White" class="shp0" d="M24.68 2L3.32 2C2.59 2 2 2.59 2 3.32L2 24.68C2 25.41 2.59 26 3.32 26L14.82 26L14.82 16.7L11.68 16.7L11.68 13.09L14.82 13.09L14.82 10.41C14.82 7.31 16.71 5.63 19.48 5.63C20.8 5.63 21.94 5.72 22.27 5.77L22.27 9.01L20.35 9.01C18.85 9.01 18.57 9.72 18.57 10.77L18.57 13.09L22.15 13.09L21.68 16.7L18.57 16.7L18.57 26L24.68 26C25.41 26 26 25.41 26 24.68L26 3.32C26 2.59 25.41 2 24.68 2Z" />
</svg>