<svg xmlns="http://www.w3.org/2000/svg" viewBox="0 0 49 49" width="24" height="24">
	<style>
		tspan { white-space:pre }
		.shp0 { fill: #fff } 
	</style>
	<g id="Layer">
		<g id="Layer">
			<path id="Layer" class="shp0" d="M40.33 31.59C37.95 31.59 35.82 32.59 34.3 34.19L16.56 25.5C16.62 25.1 16.67 24.68 16.67 24.26C16.67 23.84 16.63 23.44 16.57 23.04L34.28 14.45C35.8 16.06 37.94 17.07 40.33 17.07C44.94 17.07 48.67 13.34 48.67 8.74C48.67 4.14 44.94 0.41 40.33 0.41C35.73 0.41 32 4.14 32 8.74C32 9.15 32.04 9.56 32.1 9.96L14.39 18.54C12.87 16.94 10.72 15.93 8.33 15.93C3.73 15.93 0 19.66 0 24.26C0 28.86 3.73 32.59 8.33 32.59C10.71 32.59 12.85 31.59 14.37 30L32.1 38.68C32.04 39.09 32 39.5 32 39.92C32 44.53 35.73 48.26 40.33 48.26C44.93 48.26 48.66 44.53 48.66 39.92C48.66 35.32 44.94 31.59 40.33 31.59Z" />
		</g>
	</g>
</svg>