<svg xmlns="http://www.w3.org/2000/svg" viewBox="0 0 460 460" width="57" height="59">
	<defs>
		<clipPath clipPathUnits="userSpaceOnUse" id="cp1">
			<path d="M-208 -173L667 -173L667 633L-208 633Z" />
		</clipPath>
		<linearGradient id="grd1" gradientUnits="userSpaceOnUse"  x1="35.121" y1="230.861" x2="435.461" y2="230.861">
			<stop offset="0" stop-color="#f82e1a"  />
			<stop offset="0.323" stop-color="#f82e1a"  />
			<stop offset="1" stop-color="#ffb731"  />
		</linearGradient>
	</defs>
	<style>
		tspan { white-space:pre }
		.shp0 { fill: url(#grd1) } 
	</style>
	<g id="Page 1" clip-path="url(#cp1)">
		<path id="Path 1" fill-rule="evenodd" class="shp0" d="M357.34 3.89C398.55 3.89 434.97 33.48 444.17 75.49C459.4 145 408.28 222.07 376.75 280.04C344.49 339.39 304.42 392.53 263.39 446C245.45 469.38 206.11 448.12 219.71 424.57C113.26 362.16 -8.76 263.05 17.66 125.37C27.14 75.98 58.91 36.06 113.54 42.55C160.53 48.14 184.99 81.3 203.28 119.15C235.75 70.47 281.06 21.04 334.88 6.84C342.43 4.84 349.96 3.89 357.34 3.89ZM203.46 192.11C193.52 192.11 183.42 185.61 179.43 176.27C176.19 173.73 173.44 170.28 171.58 165.8C164.37 148.44 156.73 123.54 142.83 109.32C109.61 75.33 66.2 112.75 62.72 150.39C59.67 183.34 66.52 210.74 83.39 238.97C123.01 305.27 183.41 347.81 248.84 385.61C285.18 336.68 318.88 287.09 347.35 232.31C367.32 193.86 451.97 10.67 328.89 62.15C282.81 81.43 245.48 139.2 222.62 180.24C217.94 188.63 210.75 192.11 203.46 192.11Z" />
	</g>
</svg>